<svg width="204" height="134" viewBox="0 0 204 134" fill="none" xmlns="http://www.w3.org/2000/svg">
<path d="M94.6665 1.07817C70.7998 8.4115 63.3332 36.2782 80.5332 53.4782C84.7998 57.8782 86.5332 60.6782 87.0665 64.5448C88.3998 75.0782 91.5998 86.8115 93.4665 88.0115C96.2665 89.8782 112.4 88.9448 113.067 86.8115C113.333 85.8782 112.8 85.4782 111.733 85.8782C110.8 86.1448 107.067 86.0115 103.333 85.3448L96.6665 84.1448L105.733 84.0115C117.067 83.8782 117.6 81.3448 106.4 80.9448C101.733 80.9448 100.133 80.5448 102.667 80.2782C112 79.3448 116 78.4115 116 77.0782C116 76.2782 114.4 76.0115 112.4 76.4115C110.267 76.6782 106 76.5448 102.667 76.0115C96.7998 74.9448 96.7998 74.8115 105.6 74.6782C116.4 74.5448 118.667 72.8115 118.667 64.5448C118.667 59.6115 119.333 58.2782 122.667 55.8782C127.867 52.2782 132.933 43.3448 134.133 36.2782C137.067 17.7448 120.667 -0.521829 101.733 0.0115043C99.7332 0.0115043 96.5332 0.544838 94.6665 1.07817ZM111.2 5.47817C119.467 8.0115 127.333 16.5448 129.333 25.3448C131.733 35.8782 129.467 42.8115 121.333 50.8115C115.867 56.1448 114.8 57.8782 114.4 62.8115L114 68.5448H102.667H91.3332L90.6665 62.5448C90.1332 57.4782 89.0665 55.6115 84.3998 51.3448C62.6665 31.8782 83.0665 -2.92183 111.2 5.47817Z" fill="#0DCAF0"/>
<path d="M100 30.5449C100 40.2783 100.4 42.5449 102 42.5449C103.6 42.5449 104 40.2783 104 30.5449C104 20.8116 103.6 18.5449 102 18.5449C100.4 18.5449 100 20.8116 100 30.5449Z" fill="#0DCAF0"/>
<path d="M0 103.878C0 104.545 0.666667 105.211 1.33333 105.211C2.13333 105.211 2.66667 104.545 2.66667 103.878C2.66667 103.078 2.13333 102.545 1.33333 102.545C0.666667 102.545 0 103.078 0 103.878Z" fill="#0DCAF0"/>
<path d="M44 103.878C44 104.545 44.6667 105.211 45.3333 105.211C46.1333 105.211 46.6667 104.545 46.6667 103.878C46.6667 103.078 46.1333 102.545 45.3333 102.545C44.6667 102.545 44 103.078 44 103.878Z" fill="#0DCAF0"/>
<path d="M69.3335 114.678C69.3335 123.745 69.7335 126.678 71.0668 126.278C72.0002 125.878 72.9335 122.545 73.3335 118.412C73.8668 112.812 74.5335 111.078 76.5335 110.812C80.0002 110.145 81.3335 112.812 81.3335 120.145C81.3335 123.745 82.0002 126.545 82.6668 126.545C83.4668 126.545 84.0002 122.945 84.0002 118.545C84.0002 111.345 83.6002 110.278 80.8002 109.078C78.5335 108.012 76.9335 108.012 74.8002 109.078C72.2668 110.545 72.1335 110.412 72.8002 106.545C73.4668 103.478 73.2002 102.545 71.4668 102.545C69.6002 102.545 69.3335 104.412 69.3335 114.678Z" fill="#0DCAF0"/>
<path d="M88.4001 107.878C87.3335 109.478 87.2001 110.678 88.0001 111.212C88.8001 111.612 89.3335 115.078 89.3335 118.678C89.3335 123.345 89.8668 125.478 91.3335 126.145C92.5335 126.545 93.8668 126.412 94.4001 125.878C94.9335 125.345 94.5335 124.545 93.7335 124.278C92.6668 123.878 92.0001 121.212 92.0001 117.212C92.0001 113.345 92.6668 110.545 93.7335 110.145C95.0668 109.612 95.0668 109.345 93.7335 109.345C92.8001 109.212 92.0001 108.278 92.0001 107.212C92.0001 104.412 90.2668 104.678 88.4001 107.878Z" fill="#0DCAF0"/>
<path d="M13.4667 109.078C12.4 109.745 10.8 110.012 9.73333 109.612C8.4 109.078 8 110.945 8 117.745C8 122.678 8.53333 126.545 9.33333 126.545C10.1333 126.545 10.6667 123.612 10.6667 120.012C10.6667 113.212 13.0667 109.612 16.6667 111.078C18.1333 111.612 18.6667 113.878 18.6667 119.345C18.6667 124.678 19.0667 126.545 20.4 126.145C22.8 125.345 22.5333 110.812 20 109.212C17.4667 107.612 15.8667 107.612 13.4667 109.078Z" fill="#0DCAF0"/>
<path d="M27.8667 110.411C25.2 112.545 25.0667 113.211 26.5334 114.945C27.4667 116.145 30.2667 117.745 32.8 118.545C35.3334 119.478 37.2 120.811 36.9334 121.611C36.2667 123.745 30.9334 124.411 28.8 122.678C26.5334 120.811 24.9334 122.411 26.8 124.811C28.8 127.078 36.5334 127.078 38.6667 124.545C41.3334 121.345 39.6 118.011 34.6667 116.411C29.0667 114.545 27.4667 110.545 32.2667 110.545C34 110.545 36.1334 111.211 37.0667 112.145C38.2667 113.345 38.6667 113.211 38.6667 111.611C38.6667 110.411 37.3334 109.211 35.7334 108.678C31.4667 107.611 31.3334 107.611 27.8667 110.411Z" fill="#0DCAF0"/>
<path d="M53.0665 109.345C51.3332 110.278 50.6665 112.412 50.6665 117.078C50.6665 125.212 53.0665 127.745 58.7998 125.612C61.7332 124.545 62.6665 124.545 62.6665 125.612C62.5332 129.612 60.2665 130.945 55.1998 130.012C50.6665 129.078 50.3998 129.212 51.8665 131.078C54.2665 134.012 60.3998 133.745 63.0665 130.812C64.7998 128.945 65.3332 125.745 65.3332 118.812C65.3332 110.678 65.0665 109.345 63.0665 109.345C61.7332 109.478 59.4665 109.078 57.9998 108.678C56.5332 108.278 54.2665 108.545 53.0665 109.345ZM61.3332 113.878C63.1998 118.812 60.7998 124.145 56.9332 123.612C54.6665 123.345 53.8665 122.145 53.5998 118.812C53.0665 112.812 53.9998 110.545 57.3332 110.545C59.0665 110.545 60.5332 111.878 61.3332 113.878Z" fill="#0DCAF0"/>
<path d="M109.6 110.012C106 112.412 105.467 121.212 108.8 124.412C111.467 127.078 116.533 127.212 118.667 124.545C120.8 122.012 119.333 120.012 117.067 122.278C114.8 124.545 111.067 124.278 110.133 121.745C107.467 114.945 111.333 108.678 116.267 111.745C119.733 113.878 121.467 112.145 118.133 109.745C114.8 107.345 113.333 107.345 109.6 110.012Z" fill="#0DCAF0"/>
<path d="M126 109.745C122.933 112.012 122.4 121.078 125.2 124.412C127.467 127.078 133.867 127.212 136.533 124.412C139.867 121.212 139.333 112.412 135.733 110.012C132 107.345 129.2 107.345 126 109.745ZM134.4 112.145C136.267 114.012 136.533 119.745 134.8 122.278C134.267 123.345 132.267 123.878 130.533 123.612C128 123.345 127.2 122.278 126.933 118.812C126.667 116.278 126.8 113.478 127.2 112.412C128.133 110.145 132.267 110.012 134.4 112.145Z" fill="#0DCAF0"/>
<path d="M166 109.212C165.6 109.878 164.4 110.145 163.333 109.612C161.733 109.078 161.333 110.545 161.333 117.745C161.333 122.678 161.867 126.545 162.667 126.545C163.467 126.545 164 123.878 164 120.545C164 116.278 164.8 113.745 166.667 111.878C168.133 110.412 169.333 108.945 169.333 108.545C169.333 107.345 166.8 107.878 166 109.212Z" fill="#0DCAF0"/>
<path d="M174.133 109.611C170.533 112.278 172 116.145 177.333 117.878C183.333 119.878 184.4 123.878 179.067 123.878C176.933 123.878 174.533 123.211 173.6 122.278C172.4 121.078 172 121.211 172 122.945C172 127.478 184.133 127.611 185.867 123.078C187.067 120.145 184.667 117.611 179.2 115.878C176.667 115.078 174.667 113.745 174.667 113.078C174.667 110.811 178.933 110.011 181.6 111.745C185.2 113.878 186.667 112.145 183.467 109.745C180.133 107.345 177.2 107.345 174.133 109.611Z" fill="#0DCAF0"/>
<path d="M192.267 110.011C188.667 112.411 188.133 121.211 191.467 124.411C194 127.078 200.533 127.211 202.533 124.811C204.4 122.411 202.8 120.811 200.533 122.678C198 124.678 192.8 123.611 192.267 120.811C191.867 118.945 192.8 118.545 197.867 118.545C203.467 118.545 204 118.278 204 115.345C204 112.145 199.733 107.878 196.667 107.878C195.867 107.878 193.867 108.811 192.267 110.011ZM200 111.078C200 111.345 200.4 112.545 200.8 113.745C201.467 115.478 200.667 115.878 196.8 115.878C191.733 115.878 190.933 114.811 193.6 112.145C195.067 110.678 200 109.878 200 111.078Z" fill="#0DCAF0"/>
<path d="M0 117.878C0 122.812 0.533333 126.545 1.33333 126.545C2.13333 126.545 2.66667 122.812 2.66667 117.878C2.66667 112.945 2.13333 109.212 1.33333 109.212C0.533333 109.212 0 112.945 0 117.878Z" fill="#0DCAF0"/>
<path d="M44 117.878C44 122.812 44.5333 126.545 45.3333 126.545C46.1333 126.545 46.6667 122.812 46.6667 117.878C46.6667 112.945 46.1333 109.212 45.3333 109.212C44.5333 109.212 44 112.945 44 117.878Z" fill="#0DCAF0"/>
<path d="M142.667 116.412C142.667 124.945 144.133 126.545 151.733 126.145L157.333 126.012V117.612C157.333 111.212 156.933 109.212 155.467 109.212C154 109.212 153.333 111.212 153.067 116.145C152.667 122.678 152.4 123.212 149.333 123.212C146.267 123.212 146 122.678 145.6 116.145C145.067 107.078 142.667 107.212 142.667 116.412Z" fill="#0DCAF0"/>
</svg>
