<svg width="15" height="15" viewBox="0 0 15 15" fill="none" xmlns="http://www.w3.org/2000/svg">
<path d="M7.50031 1.25C7.18156 1.25 6.86218 1.27375 6.55093 1.32125C6.3028 1.35938 6.12968 1.59 6.17093 1.83938C6.20906 2.0875 6.44093 2.2575 6.68843 2.22C6.95406 2.17938 7.22718 2.15875 7.50031 2.15875C10.4453 2.15875 12.8409 4.555 12.8409 7.5C12.8409 10.445 10.4453 12.8412 7.50031 12.8412C4.55468 12.8412 2.15906 10.445 2.15906 7.5C2.15906 5.82937 2.91843 4.28562 4.24406 3.26625C4.44218 3.11188 4.48031 2.82687 4.32656 2.62812C4.17406 2.43 3.88781 2.3925 3.68906 2.54562C2.13968 3.73937 1.25031 5.545 1.25031 7.5C1.25031 10.9462 4.05406 13.75 7.50031 13.75C10.9466 13.75 13.7503 10.9462 13.7503 7.5C13.7503 4.05375 10.9466 1.25 7.50031 1.25Z" fill="black"/>
</svg>
