<svg width="24" height="24" viewBox="0 0 24 24" fill="none" xmlns="http://www.w3.org/2000/svg">
<g id="Iconly/Light-Outline/Bag">
<g id="Bag">
<g id="Group 3">
<mask id="mask0_33437_4941" style="mask-type:alpha" maskUnits="userSpaceOnUse" x="2" y="6" width="20" height="17">
<path id="Clip 2" fill-rule="evenodd" clip-rule="evenodd" d="M2 6.54022H21.5859V22.7218H2V6.54022Z" fill="white"/>
</mask>
<g mask="url(#mask0_33437_4941)">
<path id="Fill 1" fill-rule="evenodd" clip-rule="evenodd" d="M6.71553 8.04022C6.27453 8.04022 4.80053 8.21822 4.37753 10.5022L3.60553 16.5022C3.35453 18.1852 3.54853 19.4032 4.18353 20.1402C4.81053 20.8682 5.93253 21.2222 7.61253 21.2222H15.9605C17.0085 21.2222 18.4395 21.0132 19.3035 20.0152C19.9895 19.2242 20.2255 18.0462 20.0055 16.5132L19.2265 10.4612C18.8945 8.97022 18.0185 8.04022 16.8945 8.04022H6.71553ZM15.9605 22.7222H7.61253C5.46953 22.7222 3.97653 22.1972 3.04753 21.1182C2.11453 20.0362 1.80253 18.4132 2.12053 16.2952L2.89653 10.2692C3.40653 7.50622 5.27153 6.54022 6.71553 6.54022H16.8945C18.3445 6.54022 20.1075 7.50322 20.7025 10.2042L21.4915 16.3112C21.7745 18.2822 21.4205 19.8632 20.4375 20.9972C19.4595 22.1252 17.9115 22.7222 15.9605 22.7222V22.7222Z" fill="white"/>
</g>
</g>
<path id="Fill 4" fill-rule="evenodd" clip-rule="evenodd" d="M16.0977 7.82043C15.6837 7.82043 15.3477 7.48443 15.3477 7.07043C15.3477 5.10143 13.7457 3.50043 11.7777 3.50043H11.7627C10.8217 3.50043 9.90472 3.87943 9.23972 4.54043C8.57172 5.20543 8.18872 6.12843 8.18872 7.07043C8.18872 7.48443 7.85272 7.82043 7.43872 7.82043C7.02472 7.82043 6.68872 7.48443 6.68872 7.07043C6.68872 5.73143 7.23272 4.42243 8.18072 3.47743C9.12572 2.53843 10.4287 2.00043 11.7597 2.00043H11.7807C14.5737 2.00043 16.8477 4.27443 16.8477 7.07043C16.8477 7.48443 16.5117 7.82043 16.0977 7.82043" fill="white"/>
<path id="Fill 6" fill-rule="evenodd" clip-rule="evenodd" d="M14.7433 12.3243H14.6973C14.2833 12.3243 13.9473 11.9883 13.9473 11.5743C13.9473 11.1603 14.2833 10.8243 14.6973 10.8243C15.1113 10.8243 15.4703 11.1603 15.4703 11.5743C15.4703 11.9883 15.1573 12.3243 14.7433 12.3243" fill="white"/>
<path id="Fill 8" fill-rule="evenodd" clip-rule="evenodd" d="M8.91219 12.3243H8.86719C8.45319 12.3243 8.11719 11.9883 8.11719 11.5743C8.11719 11.1603 8.45319 10.8243 8.86719 10.8243C9.28119 10.8243 9.64019 11.1603 9.64019 11.5743C9.64019 11.9883 9.32619 12.3243 8.91219 12.3243" fill="white"/>
</g>
</g>
</svg>
