<svg width="24" height="24" viewBox="0 0 24 24" fill="none" xmlns="http://www.w3.org/2000/svg">
<g id="Iconly/Broken/Hide">
<g id="Hide">
<path id="Hide_2" fill-rule="evenodd" clip-rule="evenodd" d="M12.0001 9.59992C10.6551 9.59992 9.56112 10.6759 9.56112 12.0009C9.56112 12.3917 9.66712 12.7638 9.84712 13.1014L13.1191 9.88047C12.7771 9.70427 12.3951 9.59992 12.0001 9.59992ZM19.3851 3.71127C19.6711 3.42974 20.1341 3.42974 20.4201 3.71127C20.7061 3.99281 20.7061 4.44859 20.4201 4.73012L4.61512 20.2885C4.47212 20.4292 4.28512 20.5001 4.09812 20.5001C3.91012 20.5001 3.72312 20.4292 3.58012 20.2885C3.29412 20.0069 3.29412 19.5512 3.58012 19.2706L8.77612 14.1547C8.33712 13.5247 8.09812 12.7815 8.09812 12.0009C8.09812 9.88244 9.84812 8.15975 12.0001 8.15975C12.7871 8.15975 13.5531 8.39798 14.1901 8.8252L16.2241 6.82393C13.3561 4.98705 9.85912 5.14455 7.12712 7.2738C5.68412 8.39109 4.44512 10.0212 3.53212 12.0018C3.93812 12.8868 4.41012 13.7029 4.93612 14.4313C5.17012 14.7552 5.09312 15.2051 4.76412 15.4354C4.63512 15.526 4.48712 15.5693 4.34012 15.5693C4.11112 15.5693 3.88612 15.4649 3.74312 15.2661C3.10112 14.3772 2.53412 13.3741 2.05913 12.2844C1.98013 12.1032 1.98013 11.8965 2.06013 11.7154C3.08112 9.38828 4.51912 7.46083 6.22112 6.14273C9.51912 3.57444 13.8511 3.44746 17.2771 5.78736L19.3851 3.71127ZM21.94 11.7143C21.407 10.5045 20.771 9.40984 20.047 8.46383C19.803 8.14587 19.345 8.08189 19.023 8.3211C18.699 8.56129 18.635 9.01214 18.878 9.3301C19.475 10.1107 20.009 11.0075 20.468 12.0008C18.592 16.0663 15.445 18.483 12 18.483C11.22 18.483 10.444 18.358 9.69402 18.1119C9.30902 17.9888 8.89602 18.1896 8.76902 18.5677C8.64102 18.9447 8.84802 19.3522 9.23102 19.4792C10.13 19.7745 11.062 19.9242 12 19.9242C16.127 19.9242 19.843 17.0684 21.94 12.2853C22.02 12.1041 22.02 11.8964 21.94 11.7143ZM14.3907 12.4277C14.2127 13.4022 13.4287 14.176 12.4387 14.3522C12.0407 14.424 11.7767 14.7991 11.8487 15.1909C11.9127 15.5384 12.2217 15.7815 12.5677 15.7815C12.6117 15.7815 12.6557 15.7776 12.6997 15.7707C14.2877 15.4862 15.5467 14.2459 15.8307 12.6827C15.9027 12.2899 15.6377 11.9158 15.2397 11.8459C14.8447 11.775 14.4617 12.0379 14.3907 12.4277Z" fill="#637A30"/>
</g>
</g>
</svg>
