<svg width="25" height="25" viewBox="0 0 25 25" fill="none" xmlns="http://www.w3.org/2000/svg">
<path fill-rule="evenodd" clip-rule="evenodd" d="M22.9166 10.7364C22.9166 11.1465 22.5866 11.479 22.1795 11.479L22.1703 11.4604C21.9748 11.4604 21.7873 11.3822 21.6491 11.2429C21.5108 11.1036 21.4332 10.9148 21.4332 10.7178V9.21411C21.4082 6.68703 19.3807 4.64458 16.8721 4.61943H8.12784C5.61926 4.64458 3.59176 6.68703 3.5668 9.21411V15.7859C3.59176 18.313 5.61926 20.3554 8.12784 20.3806H16.8721C19.3807 20.3554 21.4082 18.313 21.4332 15.7859C21.4753 15.4053 21.7947 15.1174 22.1749 15.1174C22.5551 15.1174 22.8745 15.4053 22.9166 15.7859C22.9065 19.1446 20.2062 21.8648 16.8721 21.875H8.12784C4.79164 21.8699 2.08839 19.1467 2.08331 15.7859V9.21411C2.08331 5.85119 4.78954 3.125 8.12784 3.125H16.8721C20.2062 3.13519 22.9065 5.85542 22.9166 9.21411V10.7364ZM13.2694 12.3515L17.554 8.89852H17.5632C17.8822 8.64303 18.3457 8.69262 18.6044 9.0099C18.7276 9.16458 18.7843 9.3625 18.7618 9.55953C18.7393 9.75656 18.6395 9.93633 18.4846 10.0588L14.2 13.521C13.1106 14.4042 11.5577 14.4042 10.4682 13.521L6.17442 10.0588C5.85946 9.79822 5.81024 9.3313 6.06385 9.0099C6.18509 8.85587 6.36265 8.75732 6.55668 8.73638C6.75071 8.71544 6.94496 8.77385 7.09584 8.89852L11.4265 12.3515C11.9675 12.7791 12.7284 12.7791 13.2694 12.3515Z" fill="#637A30"/>
</svg>
