<svg width="88" height="26" viewBox="0 0 88 26" fill="none" xmlns="http://www.w3.org/2000/svg">
<path d="M19.8071 3.6239C18.5694 5.96038 17.3883 11.9594 22.5654 17.2639C24.4396 15.2221 26.5118 9.63559 19.8071 3.6239Z" fill="black"/>
<path d="M23.9699 22.7199C23.1446 20.0063 24.5844 13.328 36.5796 5.93225C35.6931 11.7274 31.8567 22.7199 23.9699 22.7199Z" fill="black"/>
<path d="M21.1762 23.4383C7.95922 24.919 0.221244 10.2386 0.665541 2.23002C1.93389 2.44268 8.7327 5.0743 15.5045 11.7654C21.9432 19.4655 23.8635 23.1373 21.1762 23.4383Z" fill="black"/>
<path d="M50.3287 14.6485C50.3287 15.6155 49.9711 16.3508 49.256 16.8544C48.5509 17.348 47.589 17.5948 46.3702 17.5948H45.0708V22.0519H43.6053V12.0498H46.8537C47.871 12.0498 48.702 12.2815 49.3466 12.7448C50.0014 13.2081 50.3287 13.8427 50.3287 14.6485ZM45.0708 17.1566H46.4155C46.8889 17.1566 47.2918 17.0659 47.6242 16.8846C47.9667 16.7033 48.2135 16.4717 48.3646 16.1896C48.6365 15.686 48.7725 15.1975 48.7725 14.7241C48.7725 14.4924 48.7121 14.2154 48.5912 13.8931C48.3494 13.2283 47.8509 12.7952 47.0954 12.5937C46.3702 12.5937 45.6953 12.6793 45.0708 12.8506V17.1566ZM52.5809 11.7325V22.0519H51.3118V11.7325H52.5809ZM57.711 20.4503V18.8941C56.9858 18.9445 56.3915 19.1056 55.9282 19.3776C55.4648 19.6496 55.2332 19.9417 55.2332 20.2539C55.2332 20.5662 55.3137 20.8381 55.4749 21.0698C55.6361 21.2914 55.8426 21.4475 56.0944 21.5382C56.4268 21.4777 56.7793 21.3115 57.152 21.0396C57.5247 20.7676 57.711 20.5712 57.711 20.4503ZM58.9499 20.0424C58.9499 20.7576 59.2118 21.3015 59.7356 21.6742L58.9499 22.2483L57.7261 21.1453C56.9304 21.8706 56.1951 22.2332 55.5202 22.2332C55.077 22.2332 54.6943 22.0922 54.372 21.8101C54.0597 21.5281 53.9036 21.1756 53.9036 20.7525C53.9036 20.3194 54.0295 19.9618 54.2813 19.6798C54.5432 19.3978 54.8857 19.1812 55.3087 19.0301C56.0339 18.7581 56.8347 18.5869 57.711 18.5164V17.0962C57.711 16.2601 57.2275 15.8421 56.2606 15.8421C55.7066 15.8421 55.0519 15.963 54.2964 16.2047L54.1604 15.827C54.3619 15.6659 54.7094 15.4946 55.2029 15.3133C55.7066 15.132 56.185 15.0414 56.6383 15.0414C57.0916 15.0414 57.4693 15.1018 57.7715 15.2227C58.0837 15.3435 58.3103 15.4795 58.4514 15.6306C58.6024 15.7817 58.7183 15.9882 58.7989 16.2501C58.8794 16.512 58.9248 16.7184 58.9348 16.8695C58.9449 17.0206 58.9499 17.2221 58.9499 17.4739V20.0424ZM62.2513 16.1896C62.6743 15.7867 63.042 15.4946 63.3542 15.3133C63.6766 15.132 64.0543 15.0414 64.4874 15.0414C64.9205 15.0414 65.3184 15.2126 65.681 15.5551C66.0537 15.8975 66.24 16.4868 66.24 17.3228V22.0519H64.9558V17.4739C64.9558 16.9803 64.8651 16.6127 64.6838 16.3709C64.5126 16.1191 64.2104 15.9932 63.7773 15.9932C63.3542 15.9932 62.8607 16.2752 62.2966 16.8393V22.0519H61.0124V17.3077C61.0124 16.6228 60.7555 16.0738 60.2418 15.6608L61.0124 15.0867L62.2513 16.1896ZM69.6874 20.7223C69.6874 21.0245 69.7478 21.2511 69.8687 21.4022C69.9896 21.5533 70.191 21.6288 70.473 21.6288C70.7551 21.6288 71.0925 21.5533 71.4853 21.4022V21.8252C70.9011 22.0972 70.3773 22.2332 69.914 22.2332C69.4507 22.2332 69.083 22.1073 68.8111 21.8555C68.5492 21.5936 68.4182 21.1907 68.4182 20.6468V15.7666L67.1944 15.5248V15.2227H68.4182V14.6787L69.6874 13.7571V15.2227H71.4853V15.7666H69.6874V20.7223ZM77.4725 15.2227H78.0466L75.463 22.2785C75.1306 23.2052 74.632 23.9506 73.9672 24.5146C73.3025 25.0787 72.5722 25.3658 71.7765 25.3758L71.9275 24.6204C73.2873 24.57 74.345 23.6887 75.1004 21.9763L72.0333 15.2227H73.378L75.6897 20.3446L77.4725 15.2227ZM78.8107 11.8232H80.0346V12.8808L79.5964 15.5399H79.2338L78.8107 12.8808V11.8232ZM84.474 18.2898L87.1785 22.0519H85.6827L83.7337 19.1963L81.6487 22.0519H80.9234L83.4315 18.8639L80.9688 15.2227H82.4645L84.187 17.9725L86.2115 15.2227H86.9519L84.474 18.2898Z" fill="black"/>
</svg>
