<svg width="25" height="25" viewBox="0 0 25 25" fill="none" xmlns="http://www.w3.org/2000/svg">
<path fill-rule="evenodd" clip-rule="evenodd" d="M8.39415 7.66027C8.39415 5.41033 10.2359 3.58017 12.5 3.58017C14.7642 3.58017 16.6059 5.41033 16.6059 7.66027C16.6059 9.90917 14.7642 11.7393 12.5 11.7393C10.2359 11.7393 8.39415 9.90917 8.39415 7.66027ZM6.88786 7.66027C6.88786 10.7342 9.40568 13.2362 12.5 13.2362C15.5944 13.2362 18.1111 10.7342 18.1111 7.66027C18.1111 4.58535 15.5944 2.08333 12.5 2.08333C9.40568 2.08333 6.88786 4.58535 6.88786 7.66027ZM11.435 22.901C11.7841 22.9115 12.1394 22.9167 12.5 22.9167C16.0776 22.9167 20.8334 22.5198 20.8334 19.0938C20.8334 15.2491 14.5608 15.2491 12.5 15.2491C8.92245 15.2491 4.16669 15.646 4.16669 19.073C4.16669 20.099 4.64677 21.4834 6.93398 22.2531C7.32916 22.3885 7.75474 22.175 7.88891 21.7844C8.02203 21.3938 7.81134 20.9698 7.41721 20.8375C5.85222 20.3105 5.67193 19.5782 5.67193 19.073C5.67193 17.5283 7.96962 16.7449 12.5 16.7449C17.0304 16.7449 19.3281 17.5355 19.3281 19.0938C19.3281 20.6376 17.0304 21.4198 12.5 21.4198C12.1541 21.4198 11.8134 21.4157 11.478 21.4063C11.0755 21.4094 10.717 21.7198 10.7055 22.1323C10.6929 22.5458 11.0199 22.8906 11.435 22.901Z" fill="#637A30"/>
</svg>
