<svg width="25" height="25" viewBox="0 0 25 25" fill="none" xmlns="http://www.w3.org/2000/svg">
<path fill-rule="evenodd" clip-rule="evenodd" d="M12.5022 4.16667C16.8105 4.16874 20.6802 7.17325 22.8541 12.2018C22.9375 12.3923 22.9375 12.6077 22.8541 12.7992C22.5958 13.3966 22.3083 13.9774 21.9979 14.522C21.7906 14.8885 21.3281 15.0158 20.9594 14.8108C20.5927 14.6038 20.4636 14.1431 20.6698 13.7786C20.901 13.3717 21.1198 12.9421 21.3208 12.5C19.3761 8.22514 16.0969 5.68342 12.5001 5.68238C8.90224 5.68342 5.62311 8.22514 3.67834 12.5C5.62311 16.7749 8.90224 19.3176 12.5001 19.3176C14.5918 19.3176 16.6094 18.4521 18.3355 16.8132C18.6407 16.5264 19.1219 16.5367 19.4125 16.839C19.7042 17.1403 19.6917 17.6197 19.3875 17.9085C17.374 19.8208 14.9938 20.8323 12.5022 20.8333H12.498H12.497C8.18975 20.8313 4.32 17.8278 2.14503 12.7992C2.06274 12.6087 2.06274 12.3923 2.14503 12.2018C4.32 7.17325 8.18975 4.16874 12.497 4.16667H12.5001H12.5022ZM11.1965 14.6655C11.5881 14.8995 12.0392 15.0227 12.4996 15.0227C13.8985 15.0227 15.0371 13.8911 15.0371 12.4996C15.0371 11.1102 13.8985 9.97857 12.4996 9.97857C11.1006 9.97857 9.96212 11.1102 9.96212 12.4996C9.96212 12.9189 9.62046 13.2574 9.19963 13.2574C8.7788 13.2574 8.43818 12.9189 8.43818 12.4996C8.43818 10.2736 10.26 8.46285 12.4996 8.46285C14.7391 8.46285 16.561 10.2736 16.561 12.4996C16.561 14.7266 14.7391 16.5374 12.4996 16.5374C11.7621 16.5374 11.0402 16.3386 10.4121 15.9627C10.0507 15.7484 9.934 15.2825 10.1517 14.9233C10.3684 14.5661 10.8371 14.447 11.1965 14.6655Z" fill="#637A30"/>
</svg>
